<mxfile host="app.diagrams.net" modified="2023-07-12T15:26:32.950Z" agent="Mozilla/5.0 (Windows NT 10.0; Win64; x64) AppleWebKit/537.36 (KHTML, like Gecko) Chrome/114.0.0.0 Safari/537.36 OPR/100.0.0.0 (Edition std-1)" etag="oVpYZ9oLUijVVeGQ7d6t" version="21.5.2" type="device">
  <diagram name="Seite-1" id="dPB8n6LurgorRZFqQIlx">
    <mxGraphModel dx="1161" dy="664" grid="1" gridSize="10" guides="1" tooltips="1" connect="1" arrows="1" fold="1" page="1" pageScale="1" pageWidth="827" pageHeight="1169" math="0" shadow="0">
      <root>
        <mxCell id="0" />
        <mxCell id="1" parent="0" />
        <mxCell id="oD8odKKboTeUbTvno3IX-8" value="" style="rounded=0;whiteSpace=wrap;html=1;" vertex="1" parent="1">
          <mxGeometry x="120" y="220" width="560" height="650" as="geometry" />
        </mxCell>
        <mxCell id="oD8odKKboTeUbTvno3IX-1" value="Softwarearchitektur" style="shape=umlFrame;whiteSpace=wrap;html=1;pointerEvents=0;width=140;height=30;" vertex="1" parent="1">
          <mxGeometry x="40" y="10" width="760" height="990" as="geometry" />
        </mxCell>
        <mxCell id="oD8odKKboTeUbTvno3IX-9" style="edgeStyle=orthogonalEdgeStyle;rounded=0;orthogonalLoop=1;jettySize=auto;html=1;startArrow=classic;startFill=0;endArrow=classic;endFill=0;dashed=1;" edge="1" parent="1" source="oD8odKKboTeUbTvno3IX-3" target="oD8odKKboTeUbTvno3IX-5">
          <mxGeometry relative="1" as="geometry" />
        </mxCell>
        <mxCell id="oD8odKKboTeUbTvno3IX-3" value="Csv-File" style="rounded=1;whiteSpace=wrap;html=1;" vertex="1" parent="1">
          <mxGeometry x="210" y="90" width="120" height="60" as="geometry" />
        </mxCell>
        <mxCell id="oD8odKKboTeUbTvno3IX-4" value="Init-File" style="rounded=1;whiteSpace=wrap;html=1;" vertex="1" parent="1">
          <mxGeometry x="470" y="90" width="120" height="60" as="geometry" />
        </mxCell>
        <mxCell id="oD8odKKboTeUbTvno3IX-13" style="edgeStyle=orthogonalEdgeStyle;rounded=0;orthogonalLoop=1;jettySize=auto;html=1;" edge="1" parent="1" source="oD8odKKboTeUbTvno3IX-12">
          <mxGeometry relative="1" as="geometry">
            <mxPoint x="270" y="270" as="sourcePoint" />
            <mxPoint x="270" y="400" as="targetPoint" />
            <Array as="points">
              <mxPoint x="270" y="440" />
            </Array>
          </mxGeometry>
        </mxCell>
        <mxCell id="oD8odKKboTeUbTvno3IX-15" style="edgeStyle=orthogonalEdgeStyle;rounded=0;orthogonalLoop=1;jettySize=auto;html=1;entryX=0;entryY=0.5;entryDx=0;entryDy=0;endArrow=classic;endFill=0;" edge="1" parent="1" source="oD8odKKboTeUbTvno3IX-5" target="oD8odKKboTeUbTvno3IX-12">
          <mxGeometry relative="1" as="geometry" />
        </mxCell>
        <mxCell id="oD8odKKboTeUbTvno3IX-5" value="ProcessingCSV" style="rounded=1;whiteSpace=wrap;html=1;" vertex="1" parent="1">
          <mxGeometry x="210" y="270" width="120" height="60" as="geometry" />
        </mxCell>
        <mxCell id="oD8odKKboTeUbTvno3IX-31" style="edgeStyle=orthogonalEdgeStyle;rounded=0;orthogonalLoop=1;jettySize=auto;html=1;entryX=0.5;entryY=0;entryDx=0;entryDy=0;endArrow=classic;endFill=0;" edge="1" parent="1" source="oD8odKKboTeUbTvno3IX-6" target="oD8odKKboTeUbTvno3IX-30">
          <mxGeometry relative="1" as="geometry" />
        </mxCell>
        <mxCell id="oD8odKKboTeUbTvno3IX-6" value="ini-Handler" style="rounded=1;whiteSpace=wrap;html=1;" vertex="1" parent="1">
          <mxGeometry x="470" y="270" width="120" height="60" as="geometry" />
        </mxCell>
        <mxCell id="oD8odKKboTeUbTvno3IX-11" style="edgeStyle=orthogonalEdgeStyle;rounded=0;orthogonalLoop=1;jettySize=auto;html=1;startArrow=classic;startFill=0;endArrow=classic;endFill=0;dashed=1;" edge="1" parent="1">
          <mxGeometry relative="1" as="geometry">
            <mxPoint x="529.5" y="150" as="sourcePoint" />
            <mxPoint x="529.5" y="270" as="targetPoint" />
          </mxGeometry>
        </mxCell>
        <mxCell id="oD8odKKboTeUbTvno3IX-53" style="edgeStyle=orthogonalEdgeStyle;rounded=0;orthogonalLoop=1;jettySize=auto;html=1;entryX=1;entryY=0.5;entryDx=0;entryDy=0;exitX=0.5;exitY=1;exitDx=0;exitDy=0;endArrow=classic;endFill=0;" edge="1" parent="1" source="oD8odKKboTeUbTvno3IX-12" target="oD8odKKboTeUbTvno3IX-16">
          <mxGeometry relative="1" as="geometry">
            <mxPoint x="230.00000000000003" y="449.99999999999994" as="sourcePoint" />
            <mxPoint x="292.0399999999999" y="511.56" as="targetPoint" />
            <Array as="points">
              <mxPoint x="210" y="462" />
              <mxPoint x="290" y="462" />
              <mxPoint x="290" y="500" />
            </Array>
          </mxGeometry>
        </mxCell>
        <mxCell id="oD8odKKboTeUbTvno3IX-12" value="LogIn" style="rounded=1;whiteSpace=wrap;html=1;" vertex="1" parent="1">
          <mxGeometry x="150" y="390" width="120" height="60" as="geometry" />
        </mxCell>
        <mxCell id="oD8odKKboTeUbTvno3IX-23" style="edgeStyle=orthogonalEdgeStyle;rounded=0;orthogonalLoop=1;jettySize=auto;html=1;endArrow=none;endFill=0;startArrow=classic;startFill=0;" edge="1" parent="1" source="oD8odKKboTeUbTvno3IX-16">
          <mxGeometry relative="1" as="geometry">
            <mxPoint x="129.99999999999977" y="420" as="targetPoint" />
          </mxGeometry>
        </mxCell>
        <mxCell id="oD8odKKboTeUbTvno3IX-54" style="edgeStyle=orthogonalEdgeStyle;rounded=0;orthogonalLoop=1;jettySize=auto;html=1;entryX=1.002;entryY=0.576;entryDx=0;entryDy=0;entryPerimeter=0;endArrow=classic;endFill=0;" edge="1" parent="1" target="oD8odKKboTeUbTvno3IX-17">
          <mxGeometry relative="1" as="geometry">
            <mxPoint x="290" y="500" as="sourcePoint" />
            <Array as="points">
              <mxPoint x="290" y="500" />
              <mxPoint x="290" y="585" />
            </Array>
          </mxGeometry>
        </mxCell>
        <mxCell id="oD8odKKboTeUbTvno3IX-16" value="workerInformation" style="rounded=1;whiteSpace=wrap;html=1;" vertex="1" parent="1">
          <mxGeometry x="150" y="470" width="120" height="60" as="geometry" />
        </mxCell>
        <mxCell id="oD8odKKboTeUbTvno3IX-24" style="edgeStyle=orthogonalEdgeStyle;rounded=0;orthogonalLoop=1;jettySize=auto;html=1;endArrow=none;endFill=0;startArrow=classic;startFill=0;" edge="1" parent="1" source="oD8odKKboTeUbTvno3IX-17">
          <mxGeometry relative="1" as="geometry">
            <mxPoint x="130" y="500" as="targetPoint" />
          </mxGeometry>
        </mxCell>
        <mxCell id="oD8odKKboTeUbTvno3IX-17" value="overtime / holiday" style="rounded=1;whiteSpace=wrap;html=1;" vertex="1" parent="1">
          <mxGeometry x="150" y="550" width="120" height="60" as="geometry" />
        </mxCell>
        <mxCell id="oD8odKKboTeUbTvno3IX-18" value="requests" style="rounded=1;whiteSpace=wrap;html=1;" vertex="1" parent="1">
          <mxGeometry x="150" y="630" width="120" height="60" as="geometry" />
        </mxCell>
        <mxCell id="oD8odKKboTeUbTvno3IX-19" value="userManagement" style="rounded=1;whiteSpace=wrap;html=1;" vertex="1" parent="1">
          <mxGeometry x="490" y="540" width="120" height="60" as="geometry" />
        </mxCell>
        <mxCell id="oD8odKKboTeUbTvno3IX-20" value="absence" style="rounded=1;whiteSpace=wrap;html=1;" vertex="1" parent="1">
          <mxGeometry x="490" y="620" width="120" height="60" as="geometry" />
        </mxCell>
        <mxCell id="oD8odKKboTeUbTvno3IX-50" style="edgeStyle=orthogonalEdgeStyle;rounded=0;orthogonalLoop=1;jettySize=auto;html=1;entryX=0.999;entryY=0.467;entryDx=0;entryDy=0;entryPerimeter=0;endArrow=classic;endFill=0;" edge="1" parent="1" target="oD8odKKboTeUbTvno3IX-20">
          <mxGeometry relative="1" as="geometry">
            <mxPoint x="630" y="730" as="sourcePoint" />
            <Array as="points">
              <mxPoint x="630" y="730" />
              <mxPoint x="630" y="648" />
            </Array>
          </mxGeometry>
        </mxCell>
        <mxCell id="oD8odKKboTeUbTvno3IX-59" style="edgeStyle=orthogonalEdgeStyle;rounded=0;orthogonalLoop=1;jettySize=auto;html=1;entryX=-0.001;entryY=0.437;entryDx=0;entryDy=0;entryPerimeter=0;endArrow=classic;endFill=0;" edge="1" parent="1" target="oD8odKKboTeUbTvno3IX-20">
          <mxGeometry relative="1" as="geometry">
            <mxPoint x="470" y="730" as="sourcePoint" />
            <Array as="points">
              <mxPoint x="470" y="730" />
              <mxPoint x="470" y="646" />
            </Array>
          </mxGeometry>
        </mxCell>
        <mxCell id="oD8odKKboTeUbTvno3IX-21" value="workerRequest" style="rounded=1;whiteSpace=wrap;html=1;" vertex="1" parent="1">
          <mxGeometry x="490" y="700" width="120" height="60" as="geometry" />
        </mxCell>
        <mxCell id="oD8odKKboTeUbTvno3IX-22" value="Time Detection" style="rounded=1;whiteSpace=wrap;html=1;" vertex="1" parent="1">
          <mxGeometry x="150" y="710" width="120" height="60" as="geometry" />
        </mxCell>
        <mxCell id="oD8odKKboTeUbTvno3IX-25" style="edgeStyle=orthogonalEdgeStyle;rounded=0;orthogonalLoop=1;jettySize=auto;html=1;endArrow=none;endFill=0;startArrow=classic;startFill=0;" edge="1" parent="1">
          <mxGeometry relative="1" as="geometry">
            <mxPoint x="130" y="580" as="targetPoint" />
            <mxPoint x="150" y="660" as="sourcePoint" />
          </mxGeometry>
        </mxCell>
        <mxCell id="oD8odKKboTeUbTvno3IX-26" style="edgeStyle=orthogonalEdgeStyle;rounded=0;orthogonalLoop=1;jettySize=auto;html=1;endArrow=none;endFill=0;startArrow=classic;startFill=0;" edge="1" parent="1">
          <mxGeometry relative="1" as="geometry">
            <mxPoint x="130" y="660" as="targetPoint" />
            <mxPoint x="150" y="740" as="sourcePoint" />
          </mxGeometry>
        </mxCell>
        <mxCell id="oD8odKKboTeUbTvno3IX-42" style="edgeStyle=orthogonalEdgeStyle;rounded=0;orthogonalLoop=1;jettySize=auto;html=1;entryX=1;entryY=0.5;entryDx=0;entryDy=0;endArrow=classic;endFill=0;" edge="1" parent="1" source="oD8odKKboTeUbTvno3IX-30" target="oD8odKKboTeUbTvno3IX-40">
          <mxGeometry relative="1" as="geometry">
            <Array as="points">
              <mxPoint x="530" y="480" />
            </Array>
          </mxGeometry>
        </mxCell>
        <mxCell id="oD8odKKboTeUbTvno3IX-30" value="Settings" style="rounded=1;whiteSpace=wrap;html=1;" vertex="1" parent="1">
          <mxGeometry x="470" y="360" width="120" height="60" as="geometry" />
        </mxCell>
        <mxCell id="oD8odKKboTeUbTvno3IX-38" style="edgeStyle=orthogonalEdgeStyle;rounded=0;orthogonalLoop=1;jettySize=auto;html=1;startArrow=classic;startFill=0;endArrow=classic;endFill=0;dashed=1;entryX=1;entryY=0.5;entryDx=0;entryDy=0;exitX=0.5;exitY=1;exitDx=0;exitDy=0;" edge="1" parent="1" source="oD8odKKboTeUbTvno3IX-40" target="oD8odKKboTeUbTvno3IX-35">
          <mxGeometry relative="1" as="geometry">
            <mxPoint x="219" y="1020" as="sourcePoint" />
            <mxPoint x="220" y="1100" as="targetPoint" />
          </mxGeometry>
        </mxCell>
        <mxCell id="oD8odKKboTeUbTvno3IX-41" style="edgeStyle=orthogonalEdgeStyle;rounded=0;orthogonalLoop=1;jettySize=auto;html=1;entryX=1;entryY=0.5;entryDx=0;entryDy=0;endArrow=classic;endFill=0;" edge="1" parent="1" source="oD8odKKboTeUbTvno3IX-40" target="oD8odKKboTeUbTvno3IX-12">
          <mxGeometry relative="1" as="geometry" />
        </mxCell>
        <mxCell id="oD8odKKboTeUbTvno3IX-43" style="edgeStyle=orthogonalEdgeStyle;rounded=0;orthogonalLoop=1;jettySize=auto;html=1;entryX=1;entryY=0.5;entryDx=0;entryDy=0;endArrow=block;endFill=0;" edge="1" parent="1" source="oD8odKKboTeUbTvno3IX-40" target="oD8odKKboTeUbTvno3IX-5">
          <mxGeometry relative="1" as="geometry">
            <Array as="points">
              <mxPoint x="410" y="300" />
            </Array>
          </mxGeometry>
        </mxCell>
        <mxCell id="oD8odKKboTeUbTvno3IX-40" value="Main Window" style="rounded=1;whiteSpace=wrap;html=1;" vertex="1" parent="1">
          <mxGeometry x="350" y="450" width="120" height="60" as="geometry" />
        </mxCell>
        <mxCell id="oD8odKKboTeUbTvno3IX-44" style="edgeStyle=orthogonalEdgeStyle;rounded=0;orthogonalLoop=1;jettySize=auto;html=1;endArrow=none;endFill=0;startArrow=classic;startFill=0;exitX=1;exitY=0.5;exitDx=0;exitDy=0;" edge="1" parent="1" source="oD8odKKboTeUbTvno3IX-21">
          <mxGeometry relative="1" as="geometry">
            <mxPoint x="130" y="740" as="targetPoint" />
            <mxPoint x="150" y="820" as="sourcePoint" />
            <Array as="points">
              <mxPoint x="630" y="730" />
              <mxPoint x="630" y="830" />
              <mxPoint x="130" y="830" />
            </Array>
          </mxGeometry>
        </mxCell>
        <mxCell id="oD8odKKboTeUbTvno3IX-51" style="edgeStyle=orthogonalEdgeStyle;rounded=0;orthogonalLoop=1;jettySize=auto;html=1;entryX=0.999;entryY=0.467;entryDx=0;entryDy=0;entryPerimeter=0;endArrow=classic;endFill=0;" edge="1" parent="1">
          <mxGeometry relative="1" as="geometry">
            <mxPoint x="630" y="652" as="sourcePoint" />
            <mxPoint x="610" y="570" as="targetPoint" />
            <Array as="points">
              <mxPoint x="630" y="652" />
              <mxPoint x="630" y="570" />
            </Array>
          </mxGeometry>
        </mxCell>
        <mxCell id="oD8odKKboTeUbTvno3IX-52" style="edgeStyle=orthogonalEdgeStyle;rounded=0;orthogonalLoop=1;jettySize=auto;html=1;entryX=1;entryY=0.5;entryDx=0;entryDy=0;endArrow=classic;endFill=0;" edge="1" parent="1" target="oD8odKKboTeUbTvno3IX-30">
          <mxGeometry relative="1" as="geometry">
            <mxPoint x="630" y="572" as="sourcePoint" />
            <mxPoint x="610" y="490" as="targetPoint" />
            <Array as="points">
              <mxPoint x="630" y="390" />
            </Array>
          </mxGeometry>
        </mxCell>
        <mxCell id="oD8odKKboTeUbTvno3IX-55" style="edgeStyle=orthogonalEdgeStyle;rounded=0;orthogonalLoop=1;jettySize=auto;html=1;entryX=1;entryY=0.5;entryDx=0;entryDy=0;endArrow=classic;endFill=0;" edge="1" parent="1" target="oD8odKKboTeUbTvno3IX-18">
          <mxGeometry relative="1" as="geometry">
            <mxPoint x="290" y="585" as="sourcePoint" />
            <mxPoint x="270" y="670" as="targetPoint" />
            <Array as="points">
              <mxPoint x="290" y="660" />
            </Array>
          </mxGeometry>
        </mxCell>
        <mxCell id="oD8odKKboTeUbTvno3IX-56" style="edgeStyle=orthogonalEdgeStyle;rounded=0;orthogonalLoop=1;jettySize=auto;html=1;endArrow=classic;endFill=0;" edge="1" parent="1">
          <mxGeometry relative="1" as="geometry">
            <mxPoint x="290" y="660" as="sourcePoint" />
            <mxPoint x="270" y="740" as="targetPoint" />
            <Array as="points">
              <mxPoint x="290" y="740" />
              <mxPoint x="270" y="740" />
            </Array>
          </mxGeometry>
        </mxCell>
        <mxCell id="oD8odKKboTeUbTvno3IX-58" style="edgeStyle=orthogonalEdgeStyle;rounded=0;orthogonalLoop=1;jettySize=auto;html=1;endArrow=classic;endFill=0;entryX=0;entryY=0.5;entryDx=0;entryDy=0;" edge="1" parent="1" target="oD8odKKboTeUbTvno3IX-21">
          <mxGeometry relative="1" as="geometry">
            <mxPoint x="290" y="740" as="sourcePoint" />
            <mxPoint x="270" y="820" as="targetPoint" />
            <Array as="points">
              <mxPoint x="290" y="780" />
              <mxPoint x="470" y="780" />
              <mxPoint x="470" y="730" />
            </Array>
          </mxGeometry>
        </mxCell>
        <mxCell id="oD8odKKboTeUbTvno3IX-60" style="edgeStyle=orthogonalEdgeStyle;rounded=0;orthogonalLoop=1;jettySize=auto;html=1;entryX=-0.001;entryY=0.437;entryDx=0;entryDy=0;entryPerimeter=0;endArrow=classic;endFill=0;" edge="1" parent="1">
          <mxGeometry relative="1" as="geometry">
            <mxPoint x="470" y="654" as="sourcePoint" />
            <mxPoint x="490" y="570" as="targetPoint" />
            <Array as="points">
              <mxPoint x="470" y="654" />
              <mxPoint x="470" y="570" />
            </Array>
          </mxGeometry>
        </mxCell>
        <mxCell id="oD8odKKboTeUbTvno3IX-61" style="edgeStyle=orthogonalEdgeStyle;rounded=0;orthogonalLoop=1;jettySize=auto;html=1;endArrow=classic;endFill=0;" edge="1" parent="1">
          <mxGeometry relative="1" as="geometry">
            <mxPoint x="470" y="574" as="sourcePoint" />
            <mxPoint x="630" y="520" as="targetPoint" />
            <Array as="points">
              <mxPoint x="470" y="520" />
            </Array>
          </mxGeometry>
        </mxCell>
        <mxCell id="oD8odKKboTeUbTvno3IX-62" value="" style="edgeStyle=orthogonalEdgeStyle;rounded=0;orthogonalLoop=1;jettySize=auto;html=1;startArrow=classic;startFill=0;endArrow=classic;endFill=0;dashed=1;exitX=0.5;exitY=1;exitDx=0;exitDy=0;" edge="1" parent="1" source="oD8odKKboTeUbTvno3IX-22" target="oD8odKKboTeUbTvno3IX-35">
          <mxGeometry relative="1" as="geometry">
            <mxPoint x="210" y="770" as="sourcePoint" />
            <mxPoint x="210" y="1090" as="targetPoint" />
            <Array as="points" />
          </mxGeometry>
        </mxCell>
        <mxCell id="oD8odKKboTeUbTvno3IX-35" value="operating system (time)" style="rounded=1;whiteSpace=wrap;html=1;" vertex="1" parent="1">
          <mxGeometry x="150" y="910" width="120" height="60" as="geometry" />
        </mxCell>
      </root>
    </mxGraphModel>
  </diagram>
</mxfile>
